<svg id="visual" viewBox="0 0 2000 1200" width="2000" height="1200" xmlns="http://www.w3.org/2000/svg" xmlns:xlink="http://www.w3.org/1999/xlink" version="1.1"><path d="M0 761L286 873L571 897L857 760L1143 793L1429 738L1714 890L2000 804L2000 1201L1714 1201L1429 1201L1143 1201L857 1201L571 1201L286 1201L0 1201Z" fill="#563d3a"></path><path d="M0 940L286 849L571 833L857 897L1143 816L1429 792L1714 806L2000 858L2000 1201L1714 1201L1429 1201L1143 1201L857 1201L571 1201L286 1201L0 1201Z" fill="#684d36"></path><path d="M0 874L286 977L571 939L857 893L1143 983L1429 952L1714 916L2000 983L2000 1201L1714 1201L1429 1201L1143 1201L857 1201L571 1201L286 1201L0 1201Z" fill="#696335"></path><path d="M0 1026L286 988L571 1000L857 1054L1143 1079L1429 1029L1714 1048L2000 971L2000 1201L1714 1201L1429 1201L1143 1201L857 1201L571 1201L286 1201L0 1201Z" fill="#557c47"></path><path d="M0 1096L286 1122L571 1109L857 1075L1143 1120L1429 1052L1714 1135L2000 1092L2000 1201L1714 1201L1429 1201L1143 1201L857 1201L571 1201L286 1201L0 1201Z" fill="#009473"></path></svg>