<svg id="visual" viewBox="0 0 2000 1200" width="2000" height="1200" xmlns="http://www.w3.org/2000/svg" xmlns:xlink="http://www.w3.org/1999/xlink" version="1.1"><path d="M0 868L47.7 852.7C95.3 837.3 190.7 806.7 285.8 807.7C381 808.7 476 841.3 571.2 839.3C666.3 837.3 761.7 800.7 857 785.3C952.3 770 1047.7 776 1143 796.8C1238.3 817.7 1333.7 853.3 1428.8 863.3C1524 873.3 1619 857.7 1714.2 833C1809.3 808.3 1904.7 774.7 1952.3 757.8L2000 741L2000 1201L1952.3 1201C1904.7 1201 1809.3 1201 1714.2 1201C1619 1201 1524 1201 1428.8 1201C1333.7 1201 1238.3 1201 1143 1201C1047.7 1201 952.3 1201 857 1201C761.7 1201 666.3 1201 571.2 1201C476 1201 381 1201 285.8 1201C190.7 1201 95.3 1201 47.7 1201L0 1201Z" fill="#6cc7ff"></path><path d="M0 897L47.7 882.8C95.3 868.7 190.7 840.3 285.8 825.2C381 810 476 808 571.2 826C666.3 844 761.7 882 857 879.8C952.3 877.7 1047.7 835.3 1143 814.2C1238.3 793 1333.7 793 1428.8 796.7C1524 800.3 1619 807.7 1714.2 824C1809.3 840.3 1904.7 865.7 1952.3 878.3L2000 891L2000 1201L1952.3 1201C1904.7 1201 1809.3 1201 1714.2 1201C1619 1201 1524 1201 1428.8 1201C1333.7 1201 1238.3 1201 1143 1201C1047.7 1201 952.3 1201 857 1201C761.7 1201 666.3 1201 571.2 1201C476 1201 381 1201 285.8 1201C190.7 1201 95.3 1201 47.7 1201L0 1201Z" fill="#7fa7f7"></path><path d="M0 918L47.7 914.8C95.3 911.7 190.7 905.3 285.8 909.2C381 913 476 927 571.2 939C666.3 951 761.7 961 857 972C952.3 983 1047.7 995 1143 1003.8C1238.3 1012.7 1333.7 1018.3 1428.8 1008.7C1524 999 1619 974 1714.2 961.3C1809.3 948.7 1904.7 948.3 1952.3 948.2L2000 948L2000 1201L1952.3 1201C1904.7 1201 1809.3 1201 1714.2 1201C1619 1201 1524 1201 1428.8 1201C1333.7 1201 1238.3 1201 1143 1201C1047.7 1201 952.3 1201 857 1201C761.7 1201 666.3 1201 571.2 1201C476 1201 381 1201 285.8 1201C190.7 1201 95.3 1201 47.7 1201L0 1201Z" fill="#a382db"></path><path d="M0 1056L47.7 1049.8C95.3 1043.7 190.7 1031.3 285.8 1034.5C381 1037.7 476 1056.3 571.2 1050.7C666.3 1045 761.7 1015 857 1011.8C952.3 1008.7 1047.7 1032.3 1143 1032C1238.3 1031.7 1333.7 1007.3 1428.8 1006.5C1524 1005.7 1619 1028.3 1714.2 1042.8C1809.3 1057.3 1904.7 1063.7 1952.3 1066.8L2000 1070L2000 1201L1952.3 1201C1904.7 1201 1809.3 1201 1714.2 1201C1619 1201 1524 1201 1428.8 1201C1333.7 1201 1238.3 1201 1143 1201C1047.7 1201 952.3 1201 857 1201C761.7 1201 666.3 1201 571.2 1201C476 1201 381 1201 285.8 1201C190.7 1201 95.3 1201 47.7 1201L0 1201Z" fill="#bf56aa"></path><path d="M0 1106L47.7 1109C95.3 1112 190.7 1118 285.8 1115C381 1112 476 1100 571.2 1090C666.3 1080 761.7 1072 857 1072.8C952.3 1073.7 1047.7 1083.3 1143 1097.3C1238.3 1111.3 1333.7 1129.7 1428.8 1126.5C1524 1123.3 1619 1098.7 1714.2 1098.5C1809.3 1098.3 1904.7 1122.7 1952.3 1134.8L2000 1147L2000 1201L1952.3 1201C1904.7 1201 1809.3 1201 1714.2 1201C1619 1201 1524 1201 1428.8 1201C1333.7 1201 1238.3 1201 1143 1201C1047.7 1201 952.3 1201 857 1201C761.7 1201 666.3 1201 571.2 1201C476 1201 381 1201 285.8 1201C190.7 1201 95.3 1201 47.7 1201L0 1201Z" fill="#c62368"></path></svg>